<svg width="84" height="84" viewBox="0 0 84 84" fill="none" xmlns="http://www.w3.org/2000/svg">
<circle cx="41.9995" cy="41.9995" r="41.9995" fill="#FA8D0E"/>
<g clip-path="url(#clip0_1125_210)">
<path d="M10.8867 58.0174L17.0724 64.5889L14.1857 67.3026L8 60.7311L10.8867 58.0174ZM10.5275 61.1169L13.9596 64.7618L14.5449 64.2098L11.1128 60.5649L10.5275 61.1169ZM10.8667 57.4055L12.1039 56.2415C12.9885 57.0397 14.1126 57.0995 14.9706 56.7004L13.474 55.1174L14.658 54L16.2011 55.6362L16.8795 54.9977L18.2896 56.4942L17.6112 57.1328L19.1543 58.769L17.9703 59.8864L16.394 58.2103C16.241 58.2901 16.0814 58.3699 15.9217 58.4431L16.7797 61.363L15.0837 61.7621L14.2323 58.7823C13.0683 58.789 11.8245 58.3699 10.8601 57.4055H10.8667ZM19.6664 63.7841L18.8483 62.9128L17.3318 64.3428L15.9483 62.8729L20.2451 58.8289L21.6286 60.2988L20.2783 61.5692L21.0965 62.4405L19.6664 63.7841Z" fill="white"/>
<path d="M33.2285 71.1866C32.3106 74.4258 30.7077 75.5366 28.8852 75.0178C27.0627 74.5057 26.2646 72.7098 27.1825 69.4773C28.1003 66.2381 29.7166 65.1339 31.5391 65.6461C33.3615 66.1582 34.1464 67.9475 33.2285 71.1866ZM31.3129 70.6412C31.9315 68.4396 31.6588 67.6082 31.0269 67.4286C30.3817 67.2491 29.71 67.8144 29.0914 70.016C28.4662 72.2243 28.7455 73.049 29.3907 73.2353C30.0226 73.4148 30.6944 72.8561 31.3196 70.6479L31.3129 70.6412ZM37.8512 67.3089L35.0709 77.1462L33.162 76.6075L33.8338 74.233L32.7164 73.9203L33.3549 72.1378L34.3459 72.4171L34.8381 70.6745L33.8471 70.3951L34.2329 68.5394L35.3503 68.852L35.9422 66.7702L37.8512 67.3089Z" fill="white"/>
<path d="M51.3732 72.8365L47.1828 73.9605L46.7638 72.3842L49.0651 71.7723L48.8789 71.0805C47.5154 71.1736 46.511 70.6216 46.2184 69.5108C45.8592 68.1672 46.8303 66.9767 48.6927 66.4845C50.555 65.9856 51.9917 66.531 52.3509 67.8746C52.6502 68.9854 52.0582 69.9764 50.8144 70.5684L51.0007 71.2601C51.9186 71.014 52.9096 70.6482 53.4484 70.2225L53.8674 71.7989C53.3286 72.2312 52.3576 72.5904 51.3732 72.8498V72.8365ZM50.2158 74.9982L57.0866 73.1557L57.5323 74.8119L48.6794 77.1798L47.9078 74.2998L49.8833 73.7743L50.2092 74.9982H50.2158ZM49.4908 69.4643C50.2225 69.2714 50.575 68.839 50.4553 68.3801C50.3289 67.9145 49.8101 67.7216 49.0784 67.9145C48.3468 68.1074 47.9943 68.5397 48.1207 69.0053C48.247 69.4709 48.7658 69.6638 49.4975 69.4709L49.4908 69.4643ZM56.4814 66.9101L56.9736 68.7526L55.8362 69.0585L56.7474 72.4706L54.7919 72.9961L52.7832 65.5001L54.7387 64.9746L55.3373 67.2228L56.4747 66.9168L56.4814 66.9101Z" fill="white"/>
<path d="M74.6063 59.2815L75.9166 60.5453L68.7265 67.9814L67.4162 66.7177L68.946 65.1347L68.068 64.2833L66.9373 65.4539L63.9708 62.5806L68.9792 57.3992L68.4804 56.9136L63.452 62.1083L62.1882 60.8845L68.6068 54.2598L71.5732 57.1331L66.5648 62.3145L67.0637 62.8001L72.1586 57.5389L73.4223 58.7627L72.1985 60.0265L73.0764 60.8778L74.6063 59.2948V59.2815ZM70.3494 63.678L71.6664 62.3212L70.7884 61.4698L69.4714 62.8267L70.3494 63.678Z" fill="white"/>
</g>
<path d="M61.298 27.1264C59.9228 31.5475 60.6875 36.3543 63.3609 40.1392C66.6706 44.8174 63.3738 51.2885 57.6413 51.3657C53.0143 51.4235 48.6764 53.6341 45.9066 57.3484C42.4813 61.943 35.3029 60.8056 33.4649 55.3755C31.9804 50.9929 28.5358 47.5485 24.1529 46.0641C18.7225 44.2262 17.5914 37.0483 22.18 33.6232C25.888 30.8535 28.0988 26.5159 28.163 21.8891C28.2337 16.157 34.7116 12.8604 39.3901 16.1699C43.1689 18.8431 47.9823 19.6014 52.4038 18.2326C57.8791 16.5297 63.0139 21.6706 61.3109 27.1392L61.298 27.1264Z" fill="white"/>
<path d="M38.3608 44.9824L30.6589 38.4839L33.2262 36.3178L38.3608 40.6501L51.1972 29.8193L53.7645 31.9855L38.3608 44.9824Z" fill="#FA8D0E"/>
<defs>
<clipPath id="clip0_1125_210">
<rect width="67.91" height="23.1799" fill="white" transform="translate(8 54)"/>
</clipPath>
</defs>
</svg>
