<svg width="16" height="22" viewBox="0 0 16 22" fill="none" xmlns="http://www.w3.org/2000/svg">
<path fill-rule="evenodd" clip-rule="evenodd" d="M16 3.66643C16 2.69397 15.6169 1.76141 14.935 1.07337C14.2527 0.386261 13.3278 0 12.3634 0H3.63613C2.67171 0 1.74685 0.386261 1.06449 1.07337C0.383069 1.76141 0 2.69444 0 3.66643V21.2664C0 21.5626 0.177338 21.8306 0.448698 21.9441C0.720524 22.0577 1.03331 21.9948 1.24137 21.785L7.99977 14.9703L14.7582 21.785C14.9662 21.9948 15.279 22.0577 15.5508 21.9441C15.8222 21.8306 15.9995 21.5626 15.9995 21.2664V3.66643H16Z" fill="#C8C8C8"/>
</svg>
